<svg width="24" height="24" viewBox="0 0 24 24" fill="none" xmlns="http://www.w3.org/2000/svg">
<path d="M19.5074 8C21.7134 8 23.5074 6.206 23.5074 4C23.5074 1.794 21.7134 0 19.5074 0C17.3014 0 15.5074 1.794 15.5074 4C15.5074 6.206 17.3014 8 19.5074 8ZM19.5074 2C20.6104 2 21.5074 2.897 21.5074 4C21.5074 5.103 20.6104 6 19.5074 6C18.4044 6 17.5074 5.103 17.5074 4C17.5074 2.897 18.4044 2 19.5074 2ZM22.7794 16.247L22.7744 16.228V16.227L21.2014 9.754C20.6634 9.912 20.0964 10.001 19.5074 10.001C19.4034 10.001 19.3024 9.991 19.1994 9.985L20.8364 16.72C20.8384 16.727 20.8434 16.732 20.8444 16.74H20.8404C20.9224 17.048 20.8614 17.355 20.6714 17.606C20.4794 17.861 20.1954 18.001 19.8754 18.001H3.0004C2.6954 18.001 2.4114 17.864 2.2224 17.63C2.0304 17.39 1.9584 17.082 2.0154 16.818L4.3674 7.701C5.1134 4.345 8.0494 2.001 11.5074 2.001C12.2804 2.001 13.0304 2.133 13.7394 2.362C13.9274 1.701 14.2234 1.087 14.6114 0.541C13.6324 0.193 12.5864 0.002 11.5074 0.002C7.1054 0 3.3664 2.988 2.4234 7.233L0.0714033 16.352C-0.125597 17.242 0.0894032 18.163 0.662403 18.88C1.2354 19.592 2.0884 20 3.0004 20H6.6084C7.0734 22.279 9.0924 24 11.5074 24C13.9224 24 15.9414 22.279 16.4064 20H19.8764C20.8234 20 21.6934 19.567 22.2664 18.814C22.8224 18.081 23.0054 17.154 22.7804 16.264C22.7794 16.258 22.7804 16.253 22.7804 16.247H22.7794ZM11.5074 22C10.2054 22 9.1054 21.161 8.6914 20H14.3224C13.9084 21.161 12.8084 22 11.5064 22H11.5074Z" fill="#0F33EF"/>
</svg>
