<svg width="24" height="24" viewBox="0 0 24 24" fill="none" xmlns="http://www.w3.org/2000/svg">
<path d="M20 0H4C1.794 0 0 1.794 0 4V16C0 18.206 1.794 20 4 20H6.923L10.671 23.157C11.053 23.496 11.533 23.664 12.008 23.664C12.475 23.664 12.939 23.502 13.301 23.18L17.148 20H20C22.206 20 24 18.206 24 16V4C24 1.794 22.206 0 20 0ZM22 16C22 17.103 21.103 18 20 18H16.789C16.557 18 16.331 18.081 16.152 18.229L11.981 21.645L7.934 18.235C7.753 18.083 7.525 18 7.289 18H4C2.897 18 2 17.103 2 16V4C2 2.897 2.897 2 4 2H20C21.103 2 22 2.897 22 4V16ZM17 10C17 10.552 16.552 11 16 11H13V14C13 14.552 12.552 15 12 15C11.448 15 11 14.552 11 14V11H8C7.448 11 7 10.552 7 10C7 9.448 7.448 9 8 9H11V6C11 5.448 11.448 5 12 5C12.552 5 13 5.448 13 6V9H16C16.552 9 17 9.448 17 10Z" fill="white"/>
</svg>
