<svg width="24" height="24" viewBox="0 0 24 24" fill="none" xmlns="http://www.w3.org/2000/svg">
<path d="M23.9994 16.0002V21.0001C23.9994 21.7957 23.6833 22.5588 23.1207 23.1214C22.5581 23.684 21.7951 24 20.9995 24H15.9996C14.5967 23.9986 13.2189 23.6283 12.0043 22.9262C10.7898 22.2241 9.7812 21.215 9.07977 20.0001C9.83362 19.9947 10.5849 19.9116 11.3217 19.7521C11.8828 20.4537 12.5947 21.0201 13.4044 21.4092C14.2142 21.7984 15.1012 22.0003 15.9996 22.0001H20.9995C21.2647 22.0001 21.519 21.8947 21.7066 21.7072C21.8941 21.5196 21.9994 21.2653 21.9994 21.0001V16.0002C21.9992 15.1015 21.7967 14.2143 21.4068 13.4045C21.017 12.5947 20.4499 11.8831 19.7475 11.3223C19.9083 10.5857 19.9928 9.83438 19.9995 9.08039C21.2144 9.78183 22.2235 10.7904 22.9256 12.005C23.6276 13.2195 23.998 14.5973 23.9994 16.0002ZM17.9765 9.65138C18.0701 8.36305 17.8852 7.06968 17.4344 5.85917C16.9836 4.64865 16.2776 3.54936 15.3642 2.63597C14.4508 1.72259 13.3515 1.01653 12.141 0.565764C10.9305 0.115 9.63712 -0.0699026 8.34879 0.0236207C6.06576 0.284346 3.95683 1.37076 2.41911 3.07829C0.881404 4.78581 0.0210266 6.99662 0 9.29439L0 14.3343C0 16.8662 1.50696 18.0002 2.99992 18.0002H8.69978C10.9985 17.9804 13.2107 17.1206 14.9194 15.5828C16.6281 14.045 17.7155 11.9353 17.9765 9.65138ZM13.9496 4.05152C14.6596 4.763 15.2084 5.61868 15.5589 6.56064C15.9095 7.50261 16.0536 8.50888 15.9816 9.51138C15.7682 11.295 14.9101 12.9391 13.569 14.1342C12.2278 15.3293 10.4961 15.9929 8.69978 16.0002H2.99992C2.07195 16.0002 1.99995 14.7252 1.99995 14.3343V9.29439C2.00829 7.49881 2.67258 5.76818 3.86782 4.42819C5.06306 3.08819 6.70682 2.23123 8.48978 2.01857C8.65578 2.00657 8.82178 2.00057 8.98777 2.00057C9.90902 1.99971 10.8214 2.1804 11.6728 2.53231C12.5242 2.88423 13.2979 3.40046 13.9496 4.05152Z" fill="white"/>
</svg>
