<svg width="24" height="24" viewBox="0 0 24 24" fill="none" xmlns="http://www.w3.org/2000/svg">
<path d="M3 3C3 1.895 3.895 1 5 1C6.105 1 7 1.895 7 3C7 4.105 6.105 5 5 5C3.895 5 3 4.105 3 3ZM12 5C13.381 5 14.5 3.881 14.5 2.5C14.5 1.119 13.381 0 12 0C10.619 0 9.5 1.119 9.5 2.5C9.5 3.881 10.619 5 12 5ZM19 5C20.105 5 21 4.105 21 3C21 1.895 20.105 1 19 1C17.895 1 17 1.895 17 3C17 4.105 17.895 5 19 5ZM24 12C24 18.617 18.617 24 12 24C5.383 24 0 18.617 0 12H2C2 13.045 2.163 14.052 2.461 15H5.903C5.657 14.044 5.5 13.042 5.5 12H7.5C7.5 13.04 7.679 14.048 7.97 15H16.028C16.32 14.047 16.5 13.039 16.5 12H18.5C18.5 13.042 18.343 14.044 18.097 15H21.539C21.838 14.052 22 13.045 22 12H24ZM8.773 17C9.797 19.085 11.185 20.725 11.999 21.586C12.811 20.724 14.198 19.083 15.223 17H8.774H8.773ZM9.388 21.642C8.448 20.475 7.364 18.875 6.577 17H3.353C4.661 19.253 6.819 20.945 9.388 21.642ZM20.646 17H17.421C16.634 18.875 15.551 20.475 14.61 21.642C17.179 20.945 19.339 19.252 20.646 17ZM10 8.5C10 8.225 10.224 8 10.5 8H13.5C13.776 8 14 8.225 14 8.5V10H16V8.5C16 7.121 14.878 6 13.5 6H10.5C9.122 6 8 7.121 8 8.5V10H10V8.5ZM17.238 6C17.629 6.583 17.867 7.268 17.949 8H20.5C20.776 8 21 8.225 21 8.5V10H23V8.5C23 7.121 21.878 6 20.5 6H17.238ZM3 8.5C3 8.225 3.224 8 3.5 8H6.051C6.133 7.268 6.371 6.583 6.762 6H3.5C2.122 6 1 7.121 1 8.5V10H3V8.5Z" fill="white"/>
</svg>
