<svg width="24" height="24" viewBox="0 0 24 24" fill="none" xmlns="http://www.w3.org/2000/svg">
<path d="M11.923 12C15.232 12 17.923 9.309 17.923 6C17.923 2.691 15.231 0 11.923 0C8.61501 0 5.92301 2.691 5.92301 6C5.92301 9.309 8.61401 12 11.923 12ZM11.923 2C12.318 2 12.692 2.075 13.053 2.182C12.289 3.874 10.606 5 8.70901 5C8.49901 5 8.28901 4.979 8.08101 4.951C8.54501 3.256 10.083 2 11.923 2ZM8.70901 7C11.328 7 13.648 5.485 14.77 3.197C15.481 3.919 15.923 4.908 15.923 6C15.923 8.206 14.129 10 11.923 10C10.046 10 8.47801 8.696 8.04901 6.949C8.26901 6.971 8.48701 7 8.70901 7ZM21.001 23C21.001 23.552 20.553 24 20.001 24C19.449 24 19.001 23.552 19.001 23C19.001 19.981 17.076 17.41 14.392 16.429L12.875 18.705L13.968 22.695C14.151 23.361 13.563 24 12.767 24H11.235C10.439 24 9.85201 23.361 10.034 22.695L11.127 18.705L9.61001 16.429C6.92601 17.409 5.00101 19.98 5.00101 23C5.00101 23.552 4.55301 24 4.00101 24C3.44901 24 3.00101 23.552 3.00101 23C3.00101 18.038 7.03901 14 12.001 14C16.963 14 21.001 18.038 21.001 23Z" fill="#0F33EF"/>
</svg>
