<svg width="24" height="25" viewBox="0 0 24 25" fill="none" xmlns="http://www.w3.org/2000/svg">
<path d="M22.5 9H22V5.5C22 2.468 19.533 0 16.5 0H7.5C4.467 0 2 2.468 2 5.5V9H1.5C0.671 9 0 9.672 0 10.5C0 11.328 0.671 12 1.5 12H2V15.5C2 18.532 4.467 21 7.5 21H7.593L10.459 23.413C10.903 23.809 11.462 24.005 12.014 24.005C12.554 24.005 13.087 23.818 13.5 23.449L16.462 21H16.5C19.533 21 22 18.532 22 15.5V12H22.5C23.329 12 24 11.328 24 10.5C24 9.672 23.329 9 22.5 9ZM19 15.5C19 16.879 17.878 18 16.5 18H15.923C15.574 18 15.236 18.122 14.967 18.344L12.004 20.794L9.106 18.353C8.835 18.125 8.493 18 8.14 18H7.5C6.122 18 5 16.879 5 15.5V5.5C5 4.121 6.122 3 7.5 3H16.5C17.878 3 19 4.121 19 5.5V15.5Z" fill="white"/>
</svg>
