<svg width="25" height="24" viewBox="0 0 25 24" fill="none" xmlns="http://www.w3.org/2000/svg">
<path d="M0.000249987 9.00016C0.000249987 8.44816 0.448245 8.00017 1.00024 8.00017H3.10822C3.25522 7.12618 3.58021 6.27919 4.11421 5.52919L2.63622 4.05121C2.24523 3.66021 2.24523 3.02822 2.63622 2.63722C3.02722 2.24623 3.65921 2.24623 4.05021 2.63722L5.52819 4.11521C6.27919 3.58121 7.12618 3.25622 7.99917 3.10922V1.00024C7.99917 0.448245 8.44716 0.000249987 8.99916 0.000249987C9.55115 0.000249987 9.99915 0.448245 9.99915 1.00024V3.10822C10.8731 3.25522 11.7241 3.57421 12.4761 4.10921L13.9491 2.63622C14.3401 2.24523 14.9721 2.24523 15.3631 2.63622C15.7541 3.02722 15.7541 3.65921 15.3631 4.05021L13.2421 6.17119C12.8511 6.56218 12.2191 6.56218 11.8281 6.17119C10.2681 4.6112 7.73017 4.6112 6.17119 6.17119C4.6122 7.73117 4.6112 10.2691 6.17119 11.8281C6.35919 12.0161 6.46418 12.2701 6.46418 12.5351C6.46418 12.8001 6.35919 13.0551 6.17119 13.2431L3.96321 15.4501C3.76821 15.6451 3.51221 15.7431 3.25622 15.7431C3.00022 15.7431 2.74422 15.6451 2.54922 15.4501C2.15823 15.0591 2.15823 14.4271 2.54922 14.0361L4.10921 12.4761C3.57421 11.7251 3.25522 10.8741 3.10822 9.99915H1.00024C0.448245 9.99915 0.000249987 9.55115 0.000249987 8.99916V9.00016ZM23.707 0.293247C23.316 -0.097749 22.684 -0.097749 22.293 0.293247L0.293247 22.293C-0.097749 22.684 -0.097749 23.316 0.293247 23.707C0.488245 23.902 0.744242 24 1.00024 24C1.25624 24 1.51223 23.902 1.70723 23.707L23.707 1.70723C24.098 1.31624 24.098 0.684243 23.707 0.293247ZM23.424 11.2471C23.744 11.0971 23.962 10.7891 23.996 10.4361C24.03 10.0841 23.875 9.74015 23.588 9.53215C22.571 8.79316 21.385 8.29817 20.159 8.10017C19.6181 8.01017 19.1001 8.38316 19.0131 8.92916C18.9251 9.47415 19.2961 9.98715 19.842 10.0751C20.252 10.1411 20.655 10.2511 21.045 10.4031C19.3951 11.7631 18.3921 13.8131 18.3921 16.0001C18.3921 18.1871 19.3951 20.238 21.047 21.598C20.364 21.864 19.6371 22 18.8921 22C15.9251 22 13.3721 19.79 12.9531 16.8581C12.8751 16.3111 12.3671 15.9341 11.8221 16.0091C11.2751 16.0871 10.8951 16.5941 10.9741 17.1411C11.5331 21.051 14.9381 23.999 18.8931 23.999C20.588 23.999 22.213 23.469 23.59 22.466C23.876 22.258 24.031 21.913 23.997 21.562C23.963 21.209 23.746 20.902 23.425 20.751C21.583 19.89 20.392 18.0241 20.392 15.9991C20.392 13.9741 21.582 12.1081 23.425 11.2461L23.424 11.2471Z" fill="white"/>
</svg>
