<svg width="20" height="24" viewBox="0 0 20 24" fill="none" xmlns="http://www.w3.org/2000/svg">
<path d="M17.4961 7.96688L7.95497 0.96603C7.20977 0.420349 6.328 0.0917176 5.40743 0.0165774C4.48685 -0.0585628 3.56346 0.122724 2.73963 0.540335C1.9158 0.957947 1.22373 1.59557 0.740149 2.38249C0.256571 3.16941 0.000386062 4.07489 0 4.99852V19.0002C0.000164791 19.9243 0.256364 20.8302 0.740165 21.6175C1.22397 22.4048 1.91645 23.0426 2.74075 23.4602C3.56506 23.8778 4.48896 24.0588 5.40991 23.9832C6.33086 23.9075 7.21284 23.5782 7.95797 23.0317L17.4991 16.0309C18.1325 15.5664 18.6475 14.9593 19.0025 14.2587C19.3575 13.5581 19.5425 12.7838 19.5425 11.9984C19.5425 11.213 19.3575 10.4386 19.0025 9.73804C18.6475 9.03746 18.1325 8.43035 17.4991 7.96588L17.4961 7.96688ZM16.312 14.4177L6.77083 21.4185C6.32379 21.7452 5.79507 21.9418 5.24321 21.9866C4.69135 22.0313 4.13786 21.9225 3.64401 21.6722C3.15016 21.4218 2.73522 21.0397 2.4451 20.5682C2.15499 20.0966 2.00102 19.5539 2.00024 19.0002V4.99852C1.99469 4.4438 2.14576 3.89877 2.43607 3.42605C2.72639 2.95334 3.14418 2.57212 3.64144 2.3262C4.06439 2.11106 4.5321 1.99867 5.00661 1.99816C5.64258 2.00058 6.26098 2.20707 6.77083 2.58723L16.312 9.58808C16.6915 9.86681 17.0001 10.231 17.2128 10.6511C17.4256 11.0712 17.5364 11.5355 17.5364 12.0064C17.5364 12.4773 17.4256 12.9416 17.2128 13.3617C17.0001 13.7818 16.6915 14.1459 16.312 14.4247V14.4177Z" fill="white"/>
</svg>
