<svg width="15" height="8" viewBox="0 0 15 8" fill="none" xmlns="http://www.w3.org/2000/svg">
<path d="M13.9669 5.32135e-05C13.8039 -0.00202484 13.6459 0.0568255 13.5239 0.165085C13.402 0.273344 13.3249 0.423218 13.3076 0.585369C13.1974 1.85415 12.7256 3.0647 11.9481 4.0734C11.1706 5.08209 10.1201 5.84661 8.92116 6.27623C7.72225 6.70586 6.42527 6.78256 5.18408 6.49725C3.94288 6.21195 2.80958 5.5766 1.91861 4.66658H3.99988C4.17668 4.66658 4.34625 4.59634 4.47127 4.47132C4.59629 4.3463 4.66652 4.17674 4.66652 3.99993C4.66652 3.82313 4.59629 3.65356 4.47127 3.52854C4.34625 3.40352 4.17668 3.33328 3.99988 3.33328H1.23796C1.07537 3.3332 0.914347 3.36516 0.764111 3.42734C0.613875 3.48952 0.477368 3.58071 0.362396 3.69568C0.247423 3.81065 0.156238 3.94716 0.094056 4.0974C0.0318736 4.24763 -8.74496e-05 4.40865 1.79705e-07 4.57125V7.33316C1.79705e-07 7.50997 0.0702359 7.67953 0.195256 7.80455C0.320277 7.92957 0.489841 7.99981 0.666647 7.99981C0.843452 7.99981 1.01302 7.92957 1.13804 7.80455C1.26306 7.67953 1.33329 7.50997 1.33329 7.33316V5.94787C2.43515 6.94021 3.79149 7.60622 5.25044 7.87131C6.70939 8.13641 8.21333 7.99013 9.59385 7.44886C10.9744 6.90759 12.177 5.99269 13.0669 4.80662C13.9569 3.62056 14.4991 2.21016 14.6329 0.733364C14.6415 0.640529 14.6307 0.546917 14.6011 0.458495C14.5715 0.370072 14.5239 0.288777 14.4612 0.21979C14.3985 0.150802 14.3221 0.095635 14.2368 0.0578028C14.1516 0.0199706 14.0601 0.000302828 13.9669 5.32135e-05Z" fill="#0F33EF"/>
</svg>
