<svg width="15" height="8" viewBox="0 0 15 8" fill="none" xmlns="http://www.w3.org/2000/svg">
<path d="M7.96929 1.33348C8.8536 1.33638 9.72856 1.51463 10.5435 1.85792C11.3585 2.20121 12.0973 2.70271 12.7171 3.33342H10.6359C10.4591 3.33342 10.2895 3.40365 10.1645 3.52867C10.0395 3.65369 9.96923 3.82326 9.96923 4.00006C9.96923 4.17687 10.0395 4.34643 10.1645 4.47145C10.2895 4.59647 10.4591 4.66671 10.6359 4.66671H13.3978C13.7261 4.66653 14.0408 4.53605 14.273 4.30392C14.5051 4.0718 14.6356 3.75702 14.6358 3.42875V0.66683C14.6358 0.490025 14.5655 0.320461 14.4405 0.19544C14.3155 0.0704197 14.1459 0.000183971 13.9691 0.000183971C13.7923 0.000183971 13.6227 0.0704197 13.4977 0.19544C13.3727 0.320461 13.3025 0.490025 13.3025 0.66683V2.05212C12.2006 1.05979 10.8443 0.393778 9.38532 0.128679C7.92637 -0.13642 6.42242 0.00985831 5.04191 0.551132C3.66139 1.09241 2.4588 2.0073 1.56883 3.19337C0.678854 4.37943 0.136626 5.78984 0.00286929 7.26663C-0.00574153 7.35946 0.00507974 7.45308 0.0346436 7.5415C0.0642075 7.62992 0.111866 7.71122 0.174582 7.7802C0.237298 7.84919 0.313696 7.90436 0.398909 7.94219C0.484123 7.98002 0.576282 7.99969 0.669516 7.99994C0.832569 8.00202 0.990529 7.94317 1.11247 7.83491C1.23442 7.72665 1.31157 7.57678 1.32883 7.41462C1.47723 5.75517 2.24078 4.21119 3.46948 3.08598C4.69818 1.96077 6.30322 1.33567 7.96929 1.33348Z" fill="#0F33EF"/>
</svg>
